Coordinates
version=1
nRows=10
nColumns=40
inDegrees=yes

Units are S.I. units (second, meters, Newtons, ...)
If the header above contains a line with 'inDegrees', this indicates whether rotational values are in degrees (yes) or radians (no).

endheader
time	pelvis_tilt	pelvis_list	pelvis_rotation	pelvis_tx	pelvis_ty	pelvis_tz	hip_flexion_r	hip_adduction_r	hip_rotation_r	knee_angle_r	knee_angle_r_beta	ankle_angle_r	subtalar_angle_r	mtp_angle_r	hip_flexion_l	hip_adduction_l	hip_rotation_l	knee_angle_l	knee_angle_l_beta	ankle_angle_l	subtalar_angle_l	mtp_angle_l	lumbar_extension	lumbar_bending	lumbar_rotation	arm_flex_r	arm_add_r	arm_rot_r	elbow_flex_r	pro_sup_r	wrist_flex_r	wrist_dev_r	arm_flex_l	arm_add_l	arm_rot_l	elbow_flex_l	pro_sup_l	wrist_flex_l	wrist_dev_l
      1.21000000	      0.13738869	     -5.03076419	     83.54125225	      0.19835046	      0.92598941	      0.64997850	     18.52659606	     -6.52031277	      1.19524900	     66.81369375	      1.16611894	     -3.33720082	      0.00000000	      0.00000000	     15.11671589	      1.41822484	     -1.87781764	     12.06305677	      0.21054006	      3.95493348	      0.00000000	     -0.00000000	     -3.74136822	     -0.26812974	      1.23925957	      0.00000000	      0.00000000	      0.00000000	      0.00000000	      0.00000000	      0.00000000	      0.00000000	     -0.00000000	      0.00000000	      0.00000000	      0.00000000	      0.00000000	     -0.00000000	     -0.00000000
      1.22000000	      0.27152842	     -5.13642728	     83.65423557	      0.19745897	      0.92704045	      0.64172872	     20.23980465	     -6.37966014	      0.92752050	     67.36135391	      1.17567741	     -2.27927963	      0.00000000	     -0.00000000	     14.31003336	      1.43827227	     -1.69523756	     11.46202712	      0.20005011	      4.18657691	     -0.00000000	      0.00000000	     -3.68854172	     -0.13086570	      0.94929889	     -0.00000000	     -0.00000000	      0.00000000	      0.00000000	      0.00000000	     -0.00000000	      0.00000000	     -0.00000000	     -0.00000000	      0.00000000	      0.00000000	      0.00000000	     -0.00000000	      0.00000000
      1.23000000	      0.38906421	     -5.24806259	     83.77133955	      0.19662759	      0.92794713	      0.63356587	     21.90183866	     -6.22942845	      0.68929528	     67.62320889	      1.18024765	     -1.26589323	      0.00000000	      0.00000000	     13.52521863	      1.46811487	     -1.52040962	     10.87402621	      0.18978756	      4.41576559	      0.00000000	      0.00000000	     -3.63463893	     -0.01249060	      0.63338508	      0.00000000	      0.00000000	      0.00000000	      0.00000000	      0.00000000	      0.00000000	      0.00000000	      0.00000000	      0.00000000	      0.00000000	      0.00000000	      0.00000000	      0.00000000	      0.00000000
      1.24000000	      0.55376417	     -5.35236522	     83.85093511	      0.19602766	      0.92877347	      0.62543264	     23.47178089	     -5.97353872	      0.48690039	     67.52505446	      1.17853453	     -0.78152988	      0.00000000	      0.00000000	     12.76151835	      1.39258476	     -1.65450014	     10.34348320	      0.18052784	      4.64741164	     -0.00000000	      0.00000000	     -3.58898677	      0.14256418	      0.35417514	     -0.00000000	     -0.00000000	      0.00000000	      0.00000000	      0.00000000	     -0.00000000	      0.00000000	      0.00000000	     -0.00000000	     -0.00000000	      0.00000000	      0.00000000	     -0.00000000	     -0.00000000
      1.25000000	      0.61952166	     -5.42898122	     84.02650450	      0.19524495	      0.92945786	      0.61732407	     24.93981823	     -5.85021239	      0.27729171	     67.26529644	      1.17400090	      0.52506239	      0.00000000	      0.00000000	     11.91785526	      1.50122066	     -1.17940079	      9.69270424	      0.16916960	      4.87987434	      0.00000000	      0.00000000	     -3.57197560	      0.18577611	     -0.02589478	      0.00000000	      0.00000000	      0.00000000	      0.00000000	      0.00000000	      0.00000000	      0.00000000	      0.00000000	      0.00000000	      0.00000000	      0.00000000	      0.00000000	      0.00000000	      0.00000000
      1.26000000	      0.73022145	     -5.52737947	     84.16022591	      0.19472546	      0.92997968	      0.60925558	     26.34581385	     -5.61518005	      0.11960661	     66.66567179	      1.16353547	      1.26563795	      0.00000000	      0.00000000	     11.14165837	      1.50003518	     -1.03547242	      9.12842759	      0.15932112	      5.11550422	      0.00000000	      0.00000000	     -3.52669287	      0.25364084	     -0.33263662	      0.00000000	      0.00000000	      0.00000000	      0.00000000	      0.00000000	      0.00000000	      0.00000000	      0.00000000	      0.00000000	      0.00000000	      0.00000000	      0.00000000	      0.00000000	      0.00000000
      1.27000000	      0.81729632	     -5.58990984	     84.32664634	      0.19419267	      0.93043328	      0.60117114	     27.61363957	     -5.41657180	     -0.05399774	     65.79659864	      1.14836728	      2.01916338	      0.00000000	      0.00000000	     10.32544186	      1.53085928	     -0.82772518	      8.55363772	      0.14928914	      5.35483724	      0.00000000	      0.00000000	     -3.53081784	      0.30068197	     -0.67236307	      0.00000000	      0.00000000	      0.00000000	      0.00000000	      0.00000000	      0.00000000	      0.00000000	      0.00000000	      0.00000000	      0.00000000	      0.00000000	      0.00000000	      0.00000000	      0.00000000
      1.28000000	      0.79173590	     -5.75034247	     84.45507988	      0.19373312	      0.93051768	      0.59321057	     28.94663650	     -5.30066120	     -0.13329972	     64.67308767	      1.12875832	      2.35121312	      0.00000000	      0.00000000	      9.76833947	      1.62678423	     -1.12115185	      8.22686855	      0.14358594	      5.52314415	      0.00000000	      0.00000000	     -3.39713635	      0.21446269	     -0.85411708	      0.00000000	      0.00000000	      0.00000000	      0.00000000	      0.00000000	      0.00000000	      0.00000000	      0.00000000	      0.00000000	      0.00000000	      0.00000000	      0.00000000	      0.00000000	      0.00000000
      1.29000000	      0.95836681	     -5.59825955	     84.72945437	      0.19322132	      0.93113772	      0.58485843	     29.68545449	     -5.05103367	     -0.38600891	     63.22389952	      1.10346521	      3.32427859	      0.00000000	      0.00000000	      8.55137584	      1.62567652	     -0.31768831	      7.37511101	      0.12871997	      5.85716521	      0.00000000	      0.00000000	     -3.65132159	      0.33096446	     -1.44276516	      0.00000000	      0.00000000	      0.00000000	      0.00000000	      0.00000000	      0.00000000	      0.00000000	      0.00000000	      0.00000000	      0.00000000	      0.00000000	      0.00000000	      0.00000000	      0.00000000
      1.30000000	      1.03902931	     -5.50123568	     84.92934581	      0.19287921	      0.93148067	      0.57655104	     30.42331847	     -4.84124787	     -0.53095775	     61.50612740	      1.07348443	      3.77966614	      0.00000000	      0.00000000	      7.53100512	      1.64891063	     -0.09097198	      6.75877869	      0.11796294	      6.08934339	      0.00000000	      0.00000000	     -3.82466995	      0.33511026	     -1.83911330	      0.00000000	      0.00000000	      0.00000000	      0.00000000	      0.00000000	      0.00000000	      0.00000000	      0.00000000	      0.00000000	      0.00000000	      0.00000000	      0.00000000	      0.00000000	      0.00000000
